<svg xmlns="http://www.w3.org/2000/svg" width="192" height="192">
	<path fill="#000000" d="
		M 183 96
		L 183 29
		A 20 20 0 0 0 163 9
		L 29 9
		A 20 20 0 0 0 9 29
		L 9 70.5
		A 6.5 6.5 0 0 0 22 70.5
		L 22 29
		A 7 7 0 0 1 29 22
		L 96 22
		L 96 88
		A 8 8 0 0 0 104 96
		Z
	"/>
	<path fill="#000000" d="
		M 9 96
		L 9 163
		A 20 20 0 0 0 29 183
		L 163 183
		A 20 20 0 0 0 183 163
		L 183 121.5
		A 6.5 6.5 0 0 0 170 121.5
		L 170 163
		A 7 7 0 0 1 163 170
		L 96 170
		L 96 104
		A 8 8 0 0 0 88 96
		Z
	"/>
</svg>